<svg width="72" height="57" viewBox="0 0 72 57" fill="none" xmlns="http://www.w3.org/2000/svg">
<path d="M71.9453 28.7461C71.9453 28.2721 71.7473 27.8463 71.3513 27.4685L45.5937 1.54883C45.0753 0.992961 44.5486 0.715027 44.0135 0.715027C43.502 0.715027 43.0851 0.879762 42.7627 1.20923C42.4404 1.5387 42.2793 1.92859 42.2793 2.37893C42.2793 2.64186 42.316 2.88269 42.3896 3.10143C42.463 3.32016 42.5851 3.51039 42.7558 3.67213L57.123 18.072L68.0724 28.5353L68.5295 27.336L58.2831 27.006H2.62707C2.13487 27.006 1.72404 27.1694 1.39457 27.4962C1.06512 27.823 0.900391 28.2396 0.900391 28.7461C0.900391 29.2527 1.06512 29.6693 1.39457 29.996C1.72404 30.3228 2.13487 30.4862 2.62707 30.4862H58.2831L68.5295 30.1562L68.0724 28.9709L57.123 39.4202L42.7558 53.8201C42.6087 53.9819 42.4925 54.1721 42.4073 54.3908C42.3219 54.6096 42.2793 54.8504 42.2793 55.1133C42.2793 55.5637 42.4404 55.9536 42.7627 56.283C43.0851 56.6125 43.502 56.7772 44.0135 56.7772C44.4785 56.7772 44.8997 56.6048 45.2771 56.26L71.3513 30.0237C71.7473 29.6459 71.9453 29.2201 71.9453 28.7461Z" fill="black"/>
</svg>
