<svg width="72" height="57" viewBox="0 0 72 57" fill="none" xmlns="http://www.w3.org/2000/svg">
<path d="M0.900635 28.7459C0.900635 29.2199 1.09863 29.6457 1.49461 30.0235L27.5689 56.2598C27.9462 56.6046 28.3674 56.777 28.8325 56.777C29.344 56.777 29.7609 56.6123 30.0832 56.2828C30.4055 55.9534 30.5667 55.5635 30.5667 55.1131C30.5667 54.8502 30.524 54.6094 30.4387 54.3906C30.3534 54.1719 30.2372 53.9817 30.0902 53.8199L15.7229 39.42L4.77361 28.9707L4.31651 30.156L14.5629 30.486H70.2188C70.7111 30.486 71.1219 30.3226 71.4513 29.9958C71.7808 29.6691 71.9455 29.2525 71.9455 28.7459C71.9455 28.2394 71.7808 27.8228 71.4513 27.496C71.1219 27.1692 70.7111 27.0058 70.2188 27.0058H14.5629L4.31651 27.3358L4.77361 28.5351L15.7229 18.0718L30.0902 3.67194C30.2609 3.51021 30.3829 3.31998 30.4564 3.10124C30.5299 2.88251 30.5667 2.64168 30.5667 2.37874C30.5667 1.92841 30.4055 1.53851 30.0832 1.20905C29.7609 0.879579 29.344 0.714844 28.8325 0.714844C28.2974 0.714844 27.7706 0.992778 27.2523 1.54865L1.49461 27.4683C1.09863 27.8461 0.900635 28.2719 0.900635 28.7459Z" fill="black"/>
</svg>
